<svg width="400" height="400" viewBox="0 0 400 400" fill="none" xmlns="http://www.w3.org/2000/svg">
<path d="M251.616 349.371H193.255C177.009 343.365 155.351 336.159 160.765 322.345C166.18 308.532 193.255 327.149 200.475 313.937C207.695 300.725 149.333 298.923 155.351 282.108C161.367 265.292 198.068 286.912 193.255 270.697C188.441 254.481 147.528 260.487 149.333 243.672C151.139 226.856 181.823 254.481 185.433 235.264C189.043 216.045 155.952 181.813 181.823 175.808C207.695 169.803 200.475 232.261 209.5 235.264C218.524 238.267 226.948 205.836 239.583 220.249C252.217 234.663 230.557 267.093 239.583 282.108C248.608 297.121 261.243 241.269 275.683 267.093C287.235 287.753 264.451 330.553 251.616 349.371Z" fill="white"/>
<path d="M303.448 200.597L305.848 213.195L303.448 226.392C297.249 227.192 284.612 228.792 283.652 228.792C282.692 228.792 275.653 222.793 272.253 219.793L275.853 200.597C265.775 197.237 262.456 182.4 262.056 175.401C259.656 146.607 278.852 143.007 282.452 143.007C286.051 143.007 308.847 143.007 311.847 167.003C314.247 186.2 307.248 197.397 303.448 200.597Z" fill="#EFCB96"/>
<path d="M287.439 200.597C281.852 202.459 277.157 201.373 275.217 200.597L274.053 207.58C281.503 206.649 285.887 202.731 287.439 200.597Z" fill="#4D2753"/>
<path d="M289.051 220.993C301.048 220.993 306.048 213.795 307.648 210.195L311.847 211.395L285.451 348.171H281.252H217.064L257.256 218.593L271.053 210.195H272.853C273.653 213.795 277.053 220.993 289.051 220.993Z" fill="white"/>
<path fill-rule="evenodd" clip-rule="evenodd" d="M306.975 208.755L306.551 209.708C305.083 213.012 300.439 219.793 289.051 219.793C283.311 219.793 279.764 218.08 277.564 216.06C275.343 214.02 274.387 211.565 274.025 209.935L273.816 208.995H270.717L256.245 217.805L215.435 349.371H286.441L313.233 210.543L306.975 208.755ZM271.928 211.395C272.495 213.291 273.663 215.735 275.941 217.828C278.641 220.308 282.793 222.193 289.051 222.193C300.704 222.193 306.161 215.685 308.287 211.625L310.46 212.247L284.461 346.971H218.692L258.268 219.383L271.391 211.395H271.928Z" fill="#4D2753"/>
<path d="M287.851 281.583C291.211 259.987 302.848 224.592 308.247 209.595C318.445 211.395 341.121 218.353 350.24 231.791C359.359 245.229 371.636 289.781 376.635 310.377C382.035 328.973 382.035 349.371 361.637 349.371H269.255C259.656 330.773 262.656 321.775 265.655 318.176C268.055 315.296 278.7 312.977 283.723 312.177C285.028 301.432 286.464 290.501 287.851 281.583ZM248.859 281.583C252.697 257.587 265.655 223.593 271.655 209.595C264.655 209.995 248.257 213.315 238.66 223.393C226.661 235.991 207.465 282.783 203.865 287.581C196.667 295.98 141.433 318.343 140.277 322.375C135.477 328.973 140.877 346.371 146.876 349.371H241.06C242.059 336.372 245.019 305.579 248.859 281.583Z" fill="#9B4263"/>
<path d="M321.445 303.179L312.447 266.585L314.847 302.579L270.285 313.853C266.933 314.701 263.867 316.787 262.892 320.104C259.879 330.368 264.452 342.255 268.055 346.371C264.38 342.172 264.455 321.775 268.655 318.776C272.013 316.376 313.647 308.577 334.043 304.979L321.445 303.179ZM232.061 256.987L209.865 349.371H200.267L232.061 256.987Z" fill="#4D2753"/>
<path d="M226.061 349.371C226.061 333.053 250.257 328.175 262.056 327.775C262.056 335.933 266.255 343.971 269.855 349.371H226.061ZM109.683 349.371C109.683 334.867 128.734 329.929 139.077 329.573C139.077 336.825 143.821 345.993 146.276 349.371H109.683Z" fill="#EFCB96"/>
<path d="M307.048 170.003C309.447 176.721 302.848 180.8 299.249 182L305.248 212.595L306.448 210.195C320.245 211.395 333.043 217.393 338.241 220.993C341.241 202.396 329.844 194.597 323.244 180.2C316.645 165.803 322.045 132.209 288.451 132.209C261.576 132.209 257.656 156.205 259.056 168.203C271.053 164.843 278.053 152.405 280.052 146.607C281.252 149.605 291.451 176.601 295.049 170.003C298.649 163.404 304.048 161.604 307.048 170.003ZM250.657 215.595C258.816 207.436 262.056 188.599 262.656 180.2C264.575 194.117 272.253 199.597 275.853 200.597L274.053 210.195C263.495 209.715 254.057 213.595 250.657 215.595ZM353.239 349.371C356.119 330.173 370.636 317.976 377.835 314.576C381.724 330.261 380.835 349.371 364.037 349.371H353.239Z" fill="#4D2753"/>
<path d="M69.8836 112.945C69.8836 110.215 72.1083 108.002 74.8527 108.002H168.508C171.252 108.002 173.477 110.215 173.477 112.945V163.471C173.477 166.2 171.252 168.413 168.508 168.413H74.8527C72.1083 168.413 69.8836 166.2 69.8836 163.471V112.945Z" fill="white"/>
<path fill-rule="evenodd" clip-rule="evenodd" d="M68.8899 112.945C68.8899 109.669 71.5595 107.013 74.8527 107.013H168.508C171.801 107.013 174.471 109.669 174.471 112.945V163.471C174.471 166.747 171.801 169.403 168.508 169.403H74.8527C71.5595 169.403 68.8899 166.747 68.8899 163.471V112.945ZM74.8527 108.991C72.6572 108.991 70.8775 110.761 70.8775 112.945V163.471C70.8775 165.655 72.6572 167.425 74.8527 167.425H168.508C170.704 167.425 172.484 165.655 172.484 163.471V112.945C172.484 110.761 170.704 108.991 168.508 108.991H74.8527Z" fill="#032068"/>
<path d="M142.201 135.811L117.036 157.043V163.115C117.036 165.845 119.261 168.059 122.005 168.059H168.508C171.252 168.059 173.477 165.845 173.477 163.115V154.727L148.436 135.655C146.58 134.241 143.985 134.305 142.201 135.811Z" fill="#DA6E60"/>
<path d="M129.073 126.782C129.073 130.48 126.059 133.479 122.34 133.479C118.622 133.479 115.608 130.48 115.608 126.782C115.608 123.083 118.622 120.084 122.34 120.084C126.059 120.084 129.073 123.083 129.073 126.782Z" fill="#FCAE5A"/>
<path d="M95.3948 135.788L69.8837 157.043V163.471C69.8837 166.2 72.1084 168.413 74.8528 168.413H144.185L101.625 135.667C99.778 134.245 97.1851 134.296 95.3948 135.788Z" fill="white"/>
<path fill-rule="evenodd" clip-rule="evenodd" d="M101.017 136.449C99.5393 135.312 97.4651 135.352 96.0328 136.545L70.8775 157.504V163.471C70.8775 165.655 72.6572 167.425 74.8527 167.425H141.276L101.017 136.449ZM94.7567 135.029C96.9051 133.24 100.017 133.18 102.233 134.885L147.095 169.403H74.8527C71.5595 169.403 68.8899 166.747 68.8899 163.471V156.58L94.7567 135.029Z" fill="#032068"/>
<path d="M13.7735 254.196C12.2476 290.367 34.7809 329.965 47.5713 347.041C48.2389 347.932 49.2865 348.439 50.4004 348.439H59.9095C62.0668 348.439 63.7372 346.52 63.4533 344.381C54.9812 280.576 31.5003 256.737 17.7501 251.383C15.7981 250.621 13.8617 252.103 13.7735 254.196Z" fill="white"/>
<path fill-rule="evenodd" clip-rule="evenodd" d="M17.3148 252.5C16.2541 252.087 15.0316 252.837 14.9721 254.247C14.2197 272.084 19.4028 290.839 26.4079 307.309C33.4088 323.769 42.1897 337.855 48.5316 346.321C48.9645 346.9 49.6507 347.239 50.4004 347.239H59.9095C61.3369 347.239 62.4531 345.963 62.264 344.539C53.814 280.9 30.4563 257.619 17.3148 252.5ZM12.5748 254.145C12.6919 251.369 15.3424 249.156 18.1856 250.264C32.5444 255.857 56.1487 280.252 64.6427 344.224C65.0215 347.076 62.7967 349.637 59.9095 349.637H50.4004C48.9225 349.637 47.5135 348.965 46.6111 347.76C40.1627 339.151 31.2817 324.9 24.1997 308.248C17.1221 291.608 11.8014 272.479 12.5748 254.145Z" fill="#032068"/>
<path d="M85.7667 232.628C56.1689 259.083 50.2423 321.083 50.3283 345.427C50.3351 347.368 51.9289 348.876 53.8713 348.876H62.6757C64.0081 348.876 65.2463 348.116 65.8624 346.935C95.4861 290.144 92.4383 254.88 91.3645 235.22C91.2068 232.331 87.9236 230.7 85.7667 232.628Z" fill="#DA6E60"/>
<path d="M109.137 287.976C85.8005 299.128 67.4116 326.691 58.9157 343.433C57.7355 345.76 59.4639 348.439 62.0723 348.439H72.5385C73.2323 348.439 73.918 348.236 74.4961 347.852C99.922 330.981 110.456 305.911 113.477 291.371C114.012 288.796 111.509 286.843 109.137 287.976Z" fill="white"/>
<path fill-rule="evenodd" clip-rule="evenodd" d="M112.302 291.127C112.634 289.529 111.136 288.351 109.654 289.059C98.2049 294.529 87.9049 304.064 79.386 314.372C70.8752 324.671 64.2007 335.671 59.9857 343.977C59.2321 345.461 60.3104 347.239 62.0724 347.239H72.5385C73.0012 347.239 73.4553 347.103 73.8328 346.852C98.9287 330.2 109.327 305.445 112.302 291.127ZM108.619 286.893C111.883 285.333 115.39 288.063 114.652 291.615C111.585 306.375 100.915 331.761 75.1596 348.852C74.3808 349.368 73.4635 349.637 72.5385 349.637H62.0724C58.6173 349.637 56.2388 346.057 57.8459 342.891C62.1268 334.455 68.8947 323.3 77.5363 312.844C86.1697 302.397 96.7321 292.575 108.619 286.893Z" fill="#032068"/>
<path fill-rule="evenodd" clip-rule="evenodd" d="M26.386 265.38C31.2944 272.041 35.9185 281.163 40.0649 291.032C42.8732 297.716 45.4728 304.769 47.8012 311.677L50.1179 304.279L52.4077 304.995L49.0936 315.58C51.222 322.121 49.9423 316.844 51.5 322.5L51 332.5C52.3629 337.476 50.1752 328.927 51 332.5L44.2021 331.575L45.1831 329.384L50.5 330C49.0671 324.917 48.5539 321.659 46.6935 315.96C44.1555 308.184 41.2565 300.121 38.0917 292.532L26.9111 290.04L27.4332 287.697L36.9388 289.817C33.0672 280.863 28.8488 272.768 24.4541 266.804L26.386 265.38Z" fill="#032068"/>
<path fill-rule="evenodd" clip-rule="evenodd" d="M76.4441 273.577C78.1792 267.356 79.8308 261.725 81.3161 257.077C83.0407 251.681 84.5143 247.695 85.6113 245.629L83.4923 244.504C82.2803 246.785 80.7493 250.968 79.0304 256.348C77.3016 261.757 75.3553 268.468 73.3207 275.865C71.9009 281.028 70.4372 286.528 68.9728 292.16L65.5072 284.019L63.2993 284.959L67.9869 295.972C66.2173 302.847 64.4609 309.849 62.7947 316.615C59.9099 328.327 57.2949 339.329 55.3501 347.729L57.6879 348.271C59.6015 340.005 62.1653 329.213 64.9969 317.707L76.796 311.388L75.6632 309.273L65.7709 314.571C67.2728 308.503 68.838 302.285 70.4123 296.176C72.124 289.532 73.8461 283.016 75.5085 276.96L85.1769 271.057L83.9267 269.009L76.4441 273.577Z" fill="white"/>
<path fill-rule="evenodd" clip-rule="evenodd" d="M95.2547 307.755C98.1709 304.723 101.021 302.033 103.701 299.877L102.196 298.008C98.6692 300.847 94.9051 304.535 91.1261 308.643C88.6776 311.304 86.2159 314.151 83.8004 317.068L84.4227 313.147L82.0528 312.771L80.7817 320.78C77.6003 324.757 74.5441 328.784 71.7575 332.589C67.4064 338.531 63.7069 343.939 61.2072 347.784L63.2191 349.092C65.6243 345.392 69.1639 340.212 73.3345 334.499H81.9169V332.099H75.1003C77.5384 328.813 80.1525 325.401 82.8532 322.032C86.0363 318.06 89.3361 314.152 92.6065 310.579L100.936 309.328L100.58 306.955L95.2547 307.755Z" fill="#032068"/>
<path d="M197.146 80.7526L197.38 88.1736C197.394 88.6252 197.157 89.0386 196.766 89.2455L191.788 91.8777C190.717 92.444 191.129 94.0986 192.355 94.1582L198.16 94.4406C198.584 94.4612 198.973 94.7054 199.183 95.0829L202.327 100.725C202.918 101.786 204.492 101.469 204.566 100.275L204.973 93.6658C204.997 93.2777 205.206 92.9314 205.534 92.7356L210.013 90.0633C211.022 89.4612 210.594 87.8795 209.404 87.8122L204.238 87.52C203.823 87.4965 203.442 87.259 203.232 86.892L199.379 80.1762C198.749 79.0778 197.107 79.5017 197.146 80.7526ZM132.262 186.083L129.861 187.578C129.714 187.67 129.526 187.673 129.373 187.587L127.422 186.492C127.003 186.255 126.545 186.704 126.792 187.109L127.959 189.028C128.044 189.168 128.048 189.34 127.969 189.48L126.787 191.569C126.565 191.962 127.011 192.407 127.422 192.202L129.695 191.067C129.828 191.002 129.988 191.002 130.124 191.07L131.979 191.997C132.397 192.206 132.827 191.765 132.591 191.371L131.566 189.656C131.483 189.517 131.479 189.351 131.555 189.212L132.937 186.691C133.163 186.278 132.667 185.832 132.262 186.083Z" fill="#FCAE5A"/>
<path d="M172.519 258.036L206.011 334.091C207.692 337.909 204.896 342.196 200.724 342.196H98.5252C96.178 342.196 94.0641 340.776 93.1771 338.603L62.1269 262.547C60.5756 258.748 63.3707 254.587 67.4751 254.587H167.232C169.523 254.587 171.596 255.94 172.519 258.036Z" fill="white"/>
<path fill-rule="evenodd" clip-rule="evenodd" d="M167.232 255.787C169.047 255.787 170.689 256.859 171.421 258.519L204.913 334.575C206.245 337.6 204.029 340.996 200.724 340.996H98.5252C96.6655 340.996 94.9907 339.871 94.2879 338.149L63.2377 262.093C62.0085 259.083 64.2232 255.787 67.4751 255.787H167.232ZM173.617 257.552C172.503 255.021 169.997 253.388 167.232 253.388H67.4751C62.5183 253.388 59.1427 258.412 61.0161 263.001L92.0663 339.056C93.1377 341.68 95.6905 343.396 98.5252 343.396H200.724C205.763 343.396 209.14 338.219 207.109 333.608L173.617 257.552Z" fill="#032068"/>
<path d="M141.303 292.307C139.424 287.951 135.135 285.129 130.392 285.129C121.849 285.129 116.098 293.873 119.481 301.717L120.324 303.672C122.202 308.028 126.491 310.849 131.235 310.849C139.777 310.849 145.528 302.105 142.145 294.261L141.303 292.307Z" fill="#9B4263"/>
<path d="M100.129 349.429H277.497C280.383 349.429 282.723 347.091 282.723 344.205C282.723 341.32 280.383 338.981 277.497 338.981H100.13C96.3859 338.981 93.8572 342.803 95.3212 346.248C96.1407 348.177 98.0337 349.429 100.129 349.429Z" fill="#4D2753"/>
</svg>
